<svg width="88" height="88" viewBox="0 0 88 88" fill="none" xmlns="http://www.w3.org/2000/svg">
<path d="M44 44C39.9667 44 36.6667 40.7 36.6667 36.6666C36.6667 32.6333 39.9667 29.3333 44 29.3333C48.0334 29.3333 51.3333 32.6333 51.3333 36.6666C51.3333 40.7 48.0334 44 44 44ZM66 37.4C66 24.09 56.2833 14.6666 44 14.6666C31.7167 14.6666 22 24.09 22 37.4C22 45.98 29.15 57.3466 44 70.9133C58.85 57.3466 66 45.98 66 37.4ZM44 7.33331C59.4 7.33331 73.3333 19.14 73.3333 37.4C73.3333 49.5733 63.5433 63.9833 44 80.6666C24.4567 63.9833 14.6667 49.5733 14.6667 37.4C14.6667 19.14 28.6 7.33331 44 7.33331Z" fill="#7AC143"/>
</svg>
