<svg width="76" height="76" viewBox="0 0 76 76" fill="none" xmlns="http://www.w3.org/2000/svg">
<path d="M6.33331 37.9985C6.33331 26.057 6.33331 20.0847 10.9693 16.3765C15.6116 12.6652 23.0723 12.6652 38 12.6652C52.9276 12.6652 60.3915 12.6652 65.0275 16.3765C69.6666 20.0847 69.6666 26.057 69.6666 37.9985C69.6666 49.94 69.6666 55.9123 65.0275 59.6205C60.3946 63.3318 52.9276 63.3318 38 63.3318C23.0723 63.3318 15.6085 63.3318 10.9693 59.6205C6.33331 55.9123 6.33331 49.94 6.33331 37.9985Z" stroke="#7AC143" stroke-width="6" stroke-linecap="round" stroke-linejoin="round"/>
<path d="M65.4455 16.8135L50.16 31.0318C44.346 35.8768 41.4358 38.2993 37.9968 38.2993C34.5578 38.2993 31.6508 35.8768 25.8337 31.0286L10.5545 16.8135" stroke="#7AC143" stroke-width="6" stroke-linecap="round" stroke-linejoin="round"/>
</svg>
